Coordinates
version=1
nRows=29
nColumns=24
inDegrees=yes

Units are S.I. units (second, meters, Newtons, ...)
Angles are in degrees.

endheader
time	pelvis_tilt	pelvis_list	pelvis_rotation	pelvis_tx	pelvis_ty	pelvis_tz	hip_flexion_r	hip_adduction_r	hip_rotation_r	knee_angle_r	ankle_angle_r	subtalar_angle_r	mtp_angle_r	hip_flexion_l	hip_adduction_l	hip_rotation_l	knee_angle_l	ankle_angle_l	subtalar_angle_l	mtp_angle_l	lumbar_extension	lumbar_bending	lumbar_rotation
      2.60500000	      4.06296624	      0.41554281	     -1.23610785	     -0.28184195	      1.02784685	     -0.03169183	     19.53723809	     -2.25797718	     -0.09649120	    -35.62328564	      9.32667379	     -6.95245116	     19.50756491	     -7.50892413	      2.53039286	    -11.22461820	     -3.32295736	      9.29972321	      7.55214463	      4.33630960	    -20.03385784	      0.54454103	      1.68246758
      2.61000000	      4.12901064	      0.44197071	     -1.24500088	     -0.27694340	      1.02742297	     -0.03141494	     19.47693047	     -2.25943724	     -0.07468485	    -34.23805061	      9.34761867	     -6.79653258	     19.51819177	     -7.89898647	      2.55464482	    -11.26332843	     -3.30614569	      9.59758072	      7.65690748	      4.31636018	    -20.05060886	      0.50247613	      1.63139952
      2.61500000	      4.16611403	      0.47120431	     -1.24681997	     -0.27206005	      1.02692209	     -0.03112869	     19.43556709	     -2.26510683	     -0.04945946	    -32.83919792	      9.35317192	     -6.59903337	     19.52233283	     -8.24759322	      2.57760570	    -11.26908678	     -3.30645636	      9.90248823	      7.73933346	      4.30551200	    -20.03654127	      0.45729579	      1.59747111
      2.62000000	      4.18793337	      0.51519638	     -1.25122556	     -0.26717498	      1.02634920	     -0.03084595	     19.40238814	     -2.28979408	     -0.01395123	    -31.43470641	      9.35852751	     -6.35698800	     19.52279224	     -8.57618495	      2.61630562	    -11.25866249	     -3.31229603	     10.20623584	      7.80220486	      4.30752174	    -20.00439853	      0.39716884	      1.57646467
      2.62500000	      4.19424253	      0.57736704	     -1.25777128	     -0.26228936	      1.02571350	     -0.03054470	     19.37479428	     -2.33180005	      0.04292635	    -30.01999297	      9.36537946	     -6.09548323	     19.51874294	     -8.88026268	      2.67306309	    -11.24522896	     -3.33274607	     10.50963308	      7.84898268	      4.32086952	    -19.95396341	      0.31575692	      1.55130058
      2.63000000	      4.21835208	      0.63981492	     -1.25642334	     -0.25735358	      1.02508176	     -0.03025668	     19.30306851	     -2.38194844	      0.09445347	    -28.58043133	      9.36571247	     -5.80727381	     19.50462855	     -9.20924273	      2.73037215	    -11.23613541	     -3.34596769	     10.81094594	      7.91198839	      4.33298410	    -19.92126961	      0.23907875	      1.48546697
      2.63500000	      4.22387597	      0.71756414	     -1.25423875	     -0.25243176	      1.02438225	     -0.02996245	     19.24274437	     -2.44949396	      0.16263229	    -27.13570097	      9.35841383	     -5.50308926	     19.48137691	     -9.50703144	      2.80170124	    -11.20819250	     -3.37864671	     11.11510455	      7.95601170	      4.35050325	    -19.86977970	      0.14512096	      1.43918708
      2.64000000	      4.17112834	      0.82427536	     -1.26845711	     -0.24755405	      1.02354372	     -0.02965458	     19.25357344	     -2.54120630	      0.27902666	    -25.70832492	      9.32538674	     -5.20831343	     19.46647507	     -9.72126585	      2.90588246	    -11.17559795	     -3.44565960	     11.44391510	      7.93045989	      4.38406346	    -19.75684586	      0.01860467	      1.39538660
      2.64500000	      4.19128097	      0.91921558	     -1.24014499	     -0.24259598	      1.02279857	     -0.02940928	     19.14189108	     -2.64762518	      0.32299806	    -24.23777892	      9.31474253	     -4.86404577	     19.43098049	    -10.02713499	      2.99072707	    -11.10594267	     -3.49273178	     11.73404326	      7.98723485	      4.41361814	    -19.71936941	     -0.08313367	      1.34446525
      2.65000000	      4.10280520	      1.07388381	     -1.25923083	     -0.23773230	      1.02183581	     -0.02907894	     19.17831196	     -2.78852552	      0.50065220	    -22.81274884	      9.26584420	     -4.60527037	     19.41861449	    -10.19503236	      3.14329426	    -11.04791819	     -3.56606334	     12.01155886	      7.96818278	      4.44779971	    -19.57180183	     -0.26352142	      1.28940831
      2.65500000	      4.16847091	      1.15952143	     -1.20623895	     -0.23268500	      1.02109715	     -0.02889003	     18.97740415	     -2.91039449	      0.48455294	    -21.32128885	      9.21534888	     -4.22876612	     19.33982193	    -10.54763274	      3.21803346	    -10.97378831	     -3.62783882	     12.34320488	      8.00702971	      4.48968800	    -19.58125348	     -0.34220285	      1.18483726
      2.66000000	      4.07136068	      1.33173855	     -1.22247010	     -0.22777941	      1.02004348	     -0.02858730	     19.00490457	     -3.08292807	      0.65726295	    -19.90398695	      9.14757541	     -3.96358636	     19.32143386	    -10.69419693	      3.38905711	    -10.90562730	     -3.72980273	     12.63735690	      7.98213215	      4.52775443	    -19.42005650	     -0.53621588	      1.15032310
      2.66500000	      4.08201604	      1.44950284	     -1.15123169	     -0.22275188	      1.01915404	     -0.02842701	     18.86037578	     -3.24828465	      0.63233982	    -18.44858382	      9.04622030	     -3.63871187	     19.23325922	    -10.95603375	      3.49057405	    -10.77835398	     -3.84721423	     12.98883719	      7.97284177	      4.58075725	    -19.37113204	     -0.64076074	      1.03448597
      2.67000000	      4.01912145	      1.62774863	     -1.15219156	     -0.21776555	      1.01809575	     -0.02816704	     18.83245399	     -3.44776550	      0.73911724	    -17.05602324	      8.92011662	     -3.35527582	     19.18241965	    -11.13552831	      3.66878881	    -10.70673788	     -3.96594397	     13.31357072	      7.93544988	      4.62748117	    -19.24534380	     -0.83081026	      0.95268850
      2.67500000	      4.02718451	      1.76505755	     -1.06688494	     -0.21268267	      1.01714333	     -0.02802156	     18.67734960	     -3.64157033	      0.68993744	    -15.63913688	      8.82149932	     -3.06134122	     19.06376995	    -11.39421689	      3.78667153	    -10.53814055	     -4.08679351	     13.62215357	      7.91041460	      4.68760684	    -19.19226952	     -0.95148927	      0.82882019
      2.68000000	      3.98414377	      1.93800690	     -1.02091469	     -0.20762720	      1.01606404	     -0.02782620	     18.60808936	     -3.85841584	      0.69100593	    -14.29268111	      8.68284702	     -2.78387138	     18.95794624	    -11.57830229	      3.94749308	    -10.40881689	     -4.24587445	     13.95004142	      7.87311372	      4.75174696	    -19.08480915	     -1.11956708	      0.73225547
      2.68500000	      3.95876981	      2.10661729	     -0.95666492	     -0.20252282	      1.01498706	     -0.02764711	     18.51378430	     -4.07769115	      0.63328457	    -12.98201899	      8.53095922	     -2.51202342	     18.84210741	    -11.78385960	      4.10065937	    -10.25684789	     -4.40439626	     14.28125822	      7.82397582	      4.82158868	    -18.99541847	     -1.27661731	      0.61288573
      2.69000000	      3.93137632	      2.26245428	     -0.87935280	     -0.19736526	      1.01388626	     -0.02746904	     18.41923719	     -4.28593087	      0.52997240	    -11.71826386	      8.38199982	     -2.23532069	     18.71235591	    -11.98764138	      4.23503057	    -10.09018887	     -4.56909035	     14.61259740	      7.77369558	      4.90044902	    -18.90140500	     -1.41662823	      0.48845966
      2.69500000	      3.91594112	      2.42246176	     -0.80157575	     -0.19219110	      1.01277564	     -0.02727377	     18.32281391	     -4.49466681	      0.39597297	    -10.51933193	      8.21302467	     -1.97364480	     18.58708997	    -12.19438061	      4.37118832	     -9.92478547	     -4.75744633	     14.95113406	      7.72340297	      4.98255142	    -18.82161926	     -1.56126257	      0.36963601
      2.70000000	      3.89719645	      2.56733054	     -0.71266409	     -0.18695097	      1.01164079	     -0.02706812	     18.23277346	     -4.68517610	      0.21673215	     -9.38607573	      8.04573937	     -1.71261692	     18.46136750	    -12.39843463	      4.48595903	     -9.75171201	     -4.95373719	     15.29833492	      7.68057543	      5.07170249	    -18.73313368	     -1.68674331	      0.24121314
      2.70500000	      3.90713355	      2.69915502	     -0.61116203	     -0.18166838	      1.01054702	     -0.02685004	     18.11694726	     -4.85870688	     -0.01508852	     -8.32475925	      7.87072336	     -1.46176750	     18.33622232	    -12.63108249	      4.58114010	     -9.57382878	     -5.16009497	     15.64544303	      7.64011019	      5.16513624	    -18.67482329	     -1.79581396	      0.10979968
      2.71000000	      3.91842978	      2.81638340	     -0.50003472	     -0.17633605	      1.00942880	     -0.02660931	     18.01209498	     -5.01074244	     -0.28296248	     -7.35140630	      7.71112914	     -1.20589836	     18.19324194	    -12.86844505	      4.65521494	     -9.38320544	     -5.36789607	     15.99834699	      7.59890710	      5.27430641	    -18.61736061	     -1.88733426	     -0.03257399
      2.71500000	      3.94585997	      2.91207191	     -0.38645240	     -0.17095356	      1.00833266	     -0.02632737	     17.89864850	     -5.12929973	     -0.57411780	     -6.46161490	      7.54662669	     -0.98346764	     18.05724736	    -13.11626217	      4.69968878	     -9.20548357	     -5.59827772	     16.35760684	      7.57654719	      5.38752656	    -18.57377046	     -1.95732092	     -0.15796593
      2.72000000	      4.02489958	      2.98638634	     -0.28075891	     -0.16549901	      1.00730092	     -0.02601166	     17.74726999	     -5.21674617	     -0.91587201	     -5.67570547	      7.42803547	     -0.67326477	     17.78549178	    -13.43414016	      4.72251753	     -9.04111163	     -5.80838066	     16.69032426	      7.52888608	      5.58586049	    -18.58429087	     -2.00624975	     -0.26792939
      2.72500000	      4.03566042	      3.04928507	     -0.15699528	     -0.16006022	      1.00615937	     -0.02565004	     17.68432170	     -5.27645853	     -1.18360741	     -4.98193650	      7.25824735	     -0.60225036	     17.67794063	    -13.64837763	      4.71591963	     -8.87083479	     -6.08017586	     17.07932207	      7.56219253	      5.69676162	    -18.52102526	     -2.04202990	     -0.39180577
      2.73000000	      4.10556504	      3.07867546	     -0.01929613	     -0.15451408	      1.00511706	     -0.02526424	     17.56082206	     -5.29666363	     -1.51363677	     -4.38237780	      7.11636043	     -0.48004228	     17.56679446	    -13.94270946	      4.66731102	     -8.69563739	     -6.33266529	     17.44953852	      7.58112323	      5.82174654	    -18.51508172	     -2.04024284	     -0.51811214
      2.73500000	      4.18971992	      3.09195615	      0.10684485	     -0.14893936	      1.00408123	     -0.02482690	     17.44411059	     -5.28615210	     -1.81116333	     -3.89165882	      6.98717269	     -0.39423056	     17.46032735	    -14.25103746	      4.59914633	     -8.53927367	     -6.59254800	     17.81947083	      7.61058036	      5.95602010	    -18.52532665	     -2.02516495	     -0.62573757
      2.74000000	      4.28416391	      3.08794807	      0.23017438	     -0.14331995	      1.00306544	     -0.02435222	     17.33108291	     -5.24680713	     -2.07657779	     -3.50283974	      6.86412053	     -0.35668622	     17.35978111	    -14.56967470	      4.50756547	     -8.38763901	     -6.85949981	     18.18423376	      7.64827469	      6.09985802	    -18.54378457	     -1.99238977	     -0.72086107
      2.74500000	      4.40572658	      3.06604143	      0.35248033	     -0.13763970	      1.00209106	     -0.02384620	     17.19790411	     -5.17939249	     -2.31265825	     -3.20772069	      6.74666118	     -0.36592519	     17.25679243	    -14.92206714	      4.39174434	     -8.24555626	     -7.12477980	     18.53778577	      7.70794127	      6.26636869	    -18.58791657	     -1.94007167	     -0.80650985
